<svg xmlns="http://www.w3.org/2000/svg" viewBox="0 0 64 64">
  <rect width="64" height="64" rx="14" fill="#24263f"/>
  <g transform="translate(3.93,-3.74) scale(1.194)">
    <polygon fill="#00dfec" points="35.2 36.87 42.76 50.03 39.12 37.29 35.2 36.87"/>
    <polygon fill="#00dfec" points="42.71 29.77 37.05 25.68 23.08 36.7 24.12 36.57 27.2 36.01 27.2 36.01 42.72 29.77 42.71 29.77"/>
    <polygon fill="#00a0fd" points="42.72 29.77 27.2 36.01 39.12 37.29 42.76 50.03 42.77 34.6 42.72 29.77"/>
    <polygon fill="#00a0fd" points="19.17 25.29 4.29 22.25 17.53 21.7 19.17 25.29"/>
    <polygon fill="#00a0fd" points="23.55 15.93 29.21 20.02 23.14 36.74 22.93 35.71 22.5 32.61 22.5 32.61 23.54 15.92 23.55 15.93"/>
    <polygon fill="#00dfec" points="23.54 15.92 22.5 32.61 17.53 21.7 4.29 22.25 18.94 17.4 23.54 15.92"/>
    <polygon fill="#0054e4" points="23.19 36.61 37.05 25.68 42.71 29.77 42.53 9.83 23.55 15.93 29.21 20.02 23.19 36.61"/>
  </g>
</svg>
