<?xml version="1.0" encoding="UTF-8"?>
<svg id="Layer_1" data-name="Layer 1" xmlns="http://www.w3.org/2000/svg" viewBox="0 0 75.97 59.86">
  <defs>
    <style>
      .cls-1 {
        fill: #00dfec;
      }

      .cls-1, .cls-2, .cls-3 {
        fill-rule: evenodd;
      }

      .cls-2 {
        fill: #0054e4;
      }

      .cls-3 {
        fill: #00a0fd;
      }

      .cls-4 {
        fill: #221f20;
      }
    </style>
  </defs>
  <g>
    <polygon class="cls-1" points="35.2 36.87 42.76 50.03 39.12 37.29 35.2 36.87"/>
    <polygon class="cls-1" points="42.71 29.77 37.05 25.68 23.08 36.7 24.12 36.57 27.2 36.01 27.2 36.01 42.72 29.77 42.71 29.77"/>
    <polygon class="cls-3" points="42.72 29.77 27.2 36.01 39.12 37.29 42.76 50.03 42.77 34.6 42.72 29.77"/>
    <polygon class="cls-3" points="19.17 25.29 4.29 22.25 17.53 21.7 19.17 25.29"/>
    <polygon class="cls-3" points="23.55 15.93 29.21 20.02 23.14 36.74 22.93 35.71 22.5 32.61 22.5 32.61 23.54 15.92 23.55 15.93"/>
    <polygon class="cls-1" points="23.54 15.92 22.5 32.61 17.53 21.7 4.29 22.25 18.94 17.4 23.54 15.92"/>
    <polygon class="cls-2" points="23.19 36.61 37.05 25.68 42.71 29.77 42.53 9.83 23.55 15.93 29.21 20.02 23.19 36.61"/>
  </g>
  <g>
    <path class="cls-4" d="M51.57,15.59c-.62,0-.98.47-.98,1.03h0c0,.57.4,1.06,1,1.06s.98-.47.98-1.03h0c0-.57-.4-1.06-1-1.06Z"/>
    <path class="cls-4" d="M44.45,12.88v7.71h24.5v-7.71h-24.5ZM47.82,18.62c-.29.77-.6,1.06-1.25,1.06-.39,0-.68-.1-.96-.26l.36-.78c.14.09.32.15.46.15.18,0,.28-.06.38-.25l-1.49-3.81h1.14l.86,2.58.83-2.58h1.12l-1.46,3.89ZM53.63,16.64c0,1.09-.88,1.98-2.06,1.98s-2.05-.87-2.05-1.96h0c0-1.1.88-1.99,2.06-1.99s2.05.87,2.05,1.96h0ZM57.86,18.53h-1.08v-.54c-.25.32-.57.61-1.11.61-.81,0-1.29-.54-1.29-1.41v-2.46h1.08v2.12c0,.51.24.77.65.77s.67-.26.67-.77v-2.12h1.08v3.8ZM61.11,15.79h-.06c-.72,0-1.15.43-1.15,1.34v1.4h-1.08v-3.8h1.08v.77c.22-.52.57-.86,1.21-.84v1.13Z"/>
  </g>
  <path class="cls-4" d="M44.47,22.44h3.08c.76,0,1.35.21,1.73.59.3.3.45.67.45,1.13v.02c0,.75-.4,1.16-.87,1.43.77.29,1.24.74,1.24,1.63v.02c0,1.21-.98,1.82-2.48,1.82h-3.15v-6.62ZM48.28,24.4c0-.44-.34-.68-.96-.68h-1.44v1.4h1.34c.64,0,1.05-.21,1.05-.7v-.02ZM47.57,26.33h-1.68v1.46h1.73c.64,0,1.03-.23,1.03-.72v-.02c0-.44-.33-.72-1.08-.72Z"/>
  <path class="cls-4" d="M50.9,26.55v-.02c0-1.45,1.03-2.64,2.51-2.64,1.69,0,2.47,1.32,2.47,2.75,0,.11,0,.25-.02.38h-3.53c.14.65.6.99,1.24.99.48,0,.83-.15,1.23-.52l.82.73c-.47.59-1.15.95-2.07.95-1.52,0-2.65-1.07-2.65-2.62ZM54.48,26.13c-.09-.64-.46-1.08-1.07-1.08s-.98.43-1.1,1.08h2.17Z"/>
  <path class="cls-4" d="M56.55,28.39l.61-.95c.55.4,1.13.61,1.6.61.42,0,.61-.15.61-.38v-.02c0-.31-.49-.42-1.05-.59-.71-.21-1.51-.54-1.51-1.52v-.02c0-1.03.83-1.61,1.85-1.61.64,0,1.34.22,1.89.59l-.55.99c-.5-.29-1-.47-1.37-.47s-.53.15-.53.35v.02c0,.28.48.42,1.03.61.71.24,1.53.58,1.53,1.5v.02c0,1.13-.84,1.64-1.94,1.64-.71,0-1.5-.24-2.18-.77Z"/>
  <path class="cls-4" d="M61.84,27.62v-2.4h-.61v-1.23h.61v-1.3h1.44v1.3h1.19v1.23h-1.19v2.17c0,.33.14.49.46.49.26,0,.5-.07.71-.18v1.15c-.3.18-.65.29-1.14.29-.88,0-1.48-.35-1.48-1.52Z"/>
  <path class="cls-4" d="M44.45,31.25h1.36l3.14,4.12v-4.12h1.45v6.69h-1.25l-3.24-4.25v4.25h-1.45v-6.69Z"/>
  <path class="cls-4" d="M51.6,35.41v-.02c0-1.46,1.04-2.67,2.53-2.67,1.71,0,2.49,1.33,2.49,2.78,0,.11,0,.25-.02.38h-3.57c.14.66.6,1,1.25,1,.49,0,.84-.15,1.24-.53l.83.74c-.48.59-1.17.96-2.09.96-1.54,0-2.68-1.08-2.68-2.65ZM55.22,34.98c-.09-.65-.47-1.09-1.08-1.09s-.99.43-1.11,1.09h2.19Z"/>
  <path class="cls-4" d="M59.58,34.32l.97-1.5h1.52l-1.73,2.5,1.81,2.62h-1.56l-1.03-1.6-1.03,1.6h-1.52l1.8-2.6-1.73-2.52h1.56l.96,1.5Z"/>
  <path class="cls-4" d="M63.25,36.49v-2.43h-.61v-1.24h.61v-1.31h1.45v1.31h1.2v1.24h-1.2v2.19c0,.33.14.5.47.5.27,0,.51-.07.72-.18v1.17c-.31.18-.66.3-1.15.3-.89,0-1.49-.35-1.49-1.54Z"/>
  <path class="cls-4" d="M44.45,39.9h1.58l1.75,2.81,1.75-2.81h1.58v6.65h-1.45v-4.34l-1.87,2.84h-.04l-1.85-2.81v4.31h-1.44v-6.65Z"/>
  <path class="cls-4" d="M52.3,44.04v-.02c0-1.46,1.18-2.65,2.77-2.65s2.75,1.17,2.75,2.63v.02c0,1.46-1.18,2.65-2.77,2.65s-2.75-1.17-2.75-2.63ZM56.39,44.04v-.02c0-.75-.54-1.41-1.34-1.41s-1.32.64-1.32,1.39v.02c0,.75.54,1.41,1.34,1.41s1.32-.64,1.32-1.39Z"/>
  <path class="cls-4" d="M58.12,41.46h1.53l1.14,3.41,1.15-3.41h1.5l-2.01,5.13h-1.31l-2.01-5.13Z"/>
  <path class="cls-4" d="M63.75,44.04v-.02c0-1.45,1.04-2.65,2.52-2.65,1.7,0,2.48,1.32,2.48,2.77,0,.11,0,.25-.02.38h-3.54c.14.66.6,1,1.25,1,.48,0,.84-.15,1.24-.52l.83.73c-.48.59-1.16.95-2.08.95-1.53,0-2.66-1.07-2.66-2.63ZM67.34,43.61c-.09-.65-.47-1.08-1.07-1.08s-.99.43-1.1,1.08h2.18Z"/>
</svg>