<?xml version="1.0" encoding="UTF-8"?>
<svg id="Layer_1" data-name="Layer 1" xmlns="http://www.w3.org/2000/svg" viewBox="0 0 250.86 80.23">
  <defs>
    <style>
      .cls-1 {
        fill: #00dfec;
      }

      .cls-1, .cls-2, .cls-3 {
        fill-rule: evenodd;
      }

      .cls-2 {
        fill: #0054e4;
      }

      .cls-3 {
        fill: #00a0fd;
      }

      .cls-4 {
        fill: #221f20;
      }
    </style>
  </defs>
  <g>
    <path class="cls-4" d="M85.4,27.65c-1.28,0-2.04.98-2.04,2.14v.03c0,1.16.84,2.17,2.07,2.17s2.04-.98,2.04-2.14v-.03c0-1.16-.84-2.17-2.07-2.17Z"/>
    <path class="cls-4" d="M70.65,22.03v15.99h50.79v-15.99h-50.79ZM77.63,33.93c-.6,1.6-1.25,2.2-2.58,2.2-.81,0-1.41-.21-1.98-.54l.75-1.62c.29.18.66.31.95.31.38,0,.59-.12.78-.51l-3.08-7.9h2.36l1.79,5.36,1.72-5.36h2.32l-3.02,8.06ZM89.67,29.82c0,2.26-1.82,4.1-4.27,4.1s-4.24-1.81-4.24-4.07v-.03c0-2.26,1.82-4.1,4.27-4.1s4.24,1.81,4.24,4.07v.03ZM98.44,33.74h-2.23v-1.12c-.51.66-1.17,1.26-2.31,1.26-1.69,0-2.67-1.12-2.67-2.92v-5.1h2.23v4.39c0,1.06.5,1.6,1.35,1.6s1.4-.54,1.4-1.6v-4.39h2.23v7.87ZM105.18,28.06h-.12c-1.48,0-2.39.9-2.39,2.77v2.91h-2.23v-7.87h2.23v1.59c.45-1.09,1.19-1.79,2.51-1.73v2.33Z"/>
  </g>
  <path class="cls-4" d="M70.67,41.66h6.38c1.57,0,2.81.43,3.59,1.22.63.63.94,1.39.94,2.34v.04c0,1.55-.82,2.41-1.81,2.96,1.59.61,2.57,1.53,2.57,3.38v.04c0,2.51-2.04,3.77-5.14,3.77h-6.54v-13.74ZM78.58,45.72c0-.9-.71-1.41-1.98-1.41h-2.98v2.91h2.79c1.34,0,2.18-.43,2.18-1.45v-.04ZM77.11,49.73h-3.49v3.02h3.59c1.34,0,2.14-.47,2.14-1.49v-.04c0-.92-.69-1.49-2.24-1.49Z"/>
  <path class="cls-4" d="M84.02,50.2v-.04c0-3,2.14-5.48,5.2-5.48,3.51,0,5.12,2.73,5.12,5.71,0,.24-.02.51-.04.79h-7.32c.29,1.35,1.24,2.06,2.57,2.06,1,0,1.73-.31,2.55-1.08l1.71,1.51c-.98,1.22-2.4,1.96-4.3,1.96-3.16,0-5.5-2.22-5.5-5.44ZM91.44,49.32c-.18-1.34-.96-2.24-2.22-2.24s-2.04.88-2.28,2.24h4.5Z"/>
  <path class="cls-4" d="M95.74,54.01l1.28-1.96c1.14.82,2.34,1.26,3.32,1.26.86,0,1.26-.31,1.26-.79v-.04c0-.65-1.02-.86-2.18-1.22-1.47-.43-3.14-1.12-3.14-3.16v-.04c0-2.14,1.73-3.34,3.85-3.34,1.34,0,2.79.45,3.93,1.22l-1.14,2.06c-1.04-.61-2.08-.98-2.85-.98s-1.1.31-1.1.73v.04c0,.59,1,.86,2.14,1.26,1.47.49,3.18,1.2,3.18,3.12v.04c0,2.34-1.75,3.4-4.02,3.4-1.47,0-3.12-.49-4.52-1.59Z"/>
  <path class="cls-4" d="M106.72,52.42v-4.99h-1.26v-2.55h1.26v-2.69h2.98v2.69h2.47v2.55h-2.47v4.5c0,.69.29,1.02.96,1.02.55,0,1.04-.14,1.47-.37v2.39c-.63.37-1.35.61-2.36.61-1.83,0-3.06-.73-3.06-3.16Z"/>
  <path class="cls-4" d="M121.12,42.19h2.79l6.44,8.46v-8.46h2.98v13.74h-2.57l-6.66-8.74v8.74h-2.99v-13.74Z"/>
  <path class="cls-4" d="M135.81,50.73v-.04c0-3,2.14-5.48,5.2-5.48,3.51,0,5.12,2.73,5.12,5.71,0,.24-.02.51-.04.79h-7.32c.29,1.36,1.24,2.06,2.57,2.06,1,0,1.73-.31,2.55-1.08l1.71,1.51c-.98,1.22-2.4,1.96-4.3,1.96-3.16,0-5.5-2.22-5.5-5.44ZM143.23,49.85c-.18-1.34-.96-2.24-2.22-2.24s-2.04.88-2.28,2.24h4.5Z"/>
  <path class="cls-4" d="M152.18,48.49l1.98-3.08h3.12l-3.55,5.14,3.71,5.38h-3.2l-2.12-3.28-2.12,3.28h-3.12l3.69-5.34-3.55-5.18h3.2l1.96,3.08Z"/>
  <path class="cls-4" d="M159.72,52.95v-4.99h-1.26v-2.55h1.26v-2.69h2.98v2.69h2.47v2.55h-2.47v4.5c0,.69.29,1.02.96,1.02.55,0,1.04-.14,1.47-.37v2.4c-.63.37-1.35.61-2.36.61-1.83,0-3.06-.73-3.06-3.16Z"/>
  <path class="cls-4" d="M172.31,42.33h3.26l3.61,5.81,3.61-5.81h3.26v13.74h-3v-8.97l-3.87,5.87h-.08l-3.83-5.81v8.91h-2.97v-13.74Z"/>
  <path class="cls-4" d="M188.53,50.87v-.04c0-3.02,2.43-5.48,5.71-5.48s5.67,2.41,5.67,5.44v.04c0,3.02-2.43,5.48-5.71,5.48s-5.67-2.42-5.67-5.44ZM196.97,50.87v-.04c0-1.55-1.12-2.91-2.77-2.91s-2.73,1.32-2.73,2.87v.04c0,1.55,1.12,2.91,2.77,2.91s2.73-1.32,2.73-2.87Z"/>
  <path class="cls-4" d="M200.55,45.55h3.16l2.36,7.05,2.38-7.05h3.1l-4.14,10.6h-2.71l-4.14-10.6Z"/>
  <path class="cls-4" d="M212.17,50.87v-.04c0-3,2.14-5.48,5.2-5.48,3.51,0,5.12,2.73,5.12,5.71,0,.24-.02.51-.04.79h-7.32c.29,1.35,1.24,2.06,2.57,2.06,1,0,1.73-.31,2.55-1.08l1.71,1.51c-.98,1.22-2.4,1.96-4.3,1.96-3.16,0-5.5-2.22-5.5-5.44ZM219.59,49.98c-.18-1.33-.96-2.24-2.22-2.24s-2.04.88-2.28,2.24h4.5Z"/>
  <g>
    <polygon class="cls-1" points="59.91 47.05 67.48 60.22 63.83 47.48 59.91 47.05"/>
    <polygon class="cls-1" points="67.42 39.95 61.76 35.87 47.79 46.88 48.84 46.76 51.91 46.2 51.91 46.2 67.43 39.96 67.42 39.95"/>
    <polygon class="cls-3" points="67.43 39.96 51.91 46.2 63.83 47.48 67.48 60.22 67.48 44.79 67.43 39.96"/>
    <polygon class="cls-3" points="43.88 35.48 29 32.44 42.25 31.89 43.88 35.48"/>
    <polygon class="cls-3" points="48.26 26.11 53.92 30.2 47.85 46.93 47.65 45.9 47.21 42.8 47.21 42.8 48.25 26.11 48.26 26.11"/>
    <polygon class="cls-1" points="48.25 26.11 47.21 42.8 42.25 31.89 29 32.44 43.65 27.58 48.25 26.11"/>
    <polygon class="cls-2" points="47.9 46.8 61.76 35.87 67.42 39.95 67.24 20.02 48.26 26.11 53.92 30.2 47.9 46.8"/>
  </g>
</svg>